<?xml version="1.0" standalone="no"?><!DOCTYPE svg PUBLIC "-//W3C//DTD SVG 1.1//EN" "http://www.w3.org/Graphics/SVG/1.1/DTD/svg11.dtd"><svg t="1575879995220" class="icon" viewBox="0 0 1024 1024" version="1.1" xmlns="http://www.w3.org/2000/svg" p-id="11094" xmlns:xlink="http://www.w3.org/1999/xlink" width="200" height="200"><defs><style type="text/css"></style></defs><path d="M719.436 449.032l-180.028-149c-15.62-15.62-40.948-15.62-56.568 0l-178.272 149a40.004 40.004 0 0 0-11.716 28.284v381.868c0 22.092 17.908 40 40 40h358.3c22.092 0 40-17.908 40-40v-381.868c0-10.608-4.216-20.784-11.716-28.284z" fill="#E8E6F4" p-id="11095"></path><path d="M719.436 449.032l-180.028-149c-12.592-12.592-31.484-15.016-46.524-7.308l-159.068 127.808a40.004 40.004 0 0 0-11.716 28.284v381.868c0 22.092 17.908 40 40 40H720.4c3.224 0 6.344-0.424 9.348-1.144 0.884-3.308 1.404-6.768 1.404-10.356v-381.868c0-10.608-4.216-20.784-11.716-28.284z" fill="#94D3CC" p-id="11096"></path><path d="M630.184 637.06h-63.376a12 12 0 0 1-12-12v-63.376a12 12 0 0 0-12-12h-63.376a12 12 0 0 0-12 12v63.376a12 12 0 0 1-12 12H392.06a12 12 0 0 0-12 12v63.376a12 12 0 0 0 12 12h63.372a12 12 0 0 1 12 12v63.376a12 12 0 0 0 12 12h63.376a12 12 0 0 0 12-12v-63.376a12 12 0 0 1 12-12h63.376a12 12 0 0 0 12-12v-63.376a12 12 0 0 0-12-12z" fill="#E8E6F4" p-id="11097"></path><path d="M630.184 637.06h-63.376a12 12 0 0 1-12-12v-63.376a12 12 0 0 0-12-12h-63.376a12 12 0 0 0-12 12v63.376a12 12 0 0 1-12 12h-46.124v46.876a12 12 0 0 0 12 12h63.372a12 12 0 0 1 12 12v63.376a12 12 0 0 0 12 12h46.124v-46.876a12 12 0 0 1 12-12h63.376a12 12 0 0 0 12-12v-63.376a11.992 11.992 0 0 0-11.996-12z" fill="#EB6B69" p-id="11098"></path><path d="M510.252 418.628m-43.688 0a43.688 43.688 0 1 0 87.376 0 43.688 43.688 0 1 0-87.376 0Z" fill="#E8E6F4" p-id="11099"></path><path d="M727.92 440.548l-180.456-149.416a51.6 51.6 0 0 0-25.212-13.58v-37.356c0-28.672-23.328-52-52-52H376.76c-15.44 0-28-12.564-28-28V112.816h-24v47.376c0 28.672 23.328 52 52 52h93.492c15.44 0 28 12.564 28 28v37.788a51.6 51.6 0 0 0-23.496 13.172l-177.884 148.676-0.792 0.724a51.66 51.66 0 0 0-15.232 36.768v381.868c0 28.672 23.328 52 52 52h358.3c28.672 0 52-23.328 52-52V477.32c0-13.892-5.408-26.948-15.228-36.772z m-205.668-41.924v-9.312c11.536 4.74 19.688 16.084 19.688 29.312 0 17.472-14.216 31.688-31.688 31.688-13.224 0-24.568-8.152-29.308-19.688h9.308c17.644 0 32-14.356 32-32z m-41.312 8a31.864 31.864 0 0 1 17.308-17.312v9.312c0 4.412-3.588 8-8 8h-9.308z m238.208 452.56c0 15.436-12.56 28-28 28H349.06V768.12h-24v117.936c-11.656-3.384-20.212-14.144-20.212-26.876v-381.868c0-7.312 2.788-14.204 7.86-19.452l177.824-148.62 0.788-0.724a27.904 27.904 0 0 1 6.928-5.06v60.816c-24.952 5.508-43.684 27.768-43.684 54.352 0 30.708 24.98 55.688 55.684 55.688 30.708 0 55.688-24.98 55.688-55.688 0-26.584-18.736-48.844-43.688-54.352V302.652c3.148 1.36 6.104 3.3 8.668 5.868l99.26 82.188v117.324h24v-97.452l57.128 47.3a27.812 27.812 0 0 1 7.84 19.432v381.872z" fill="#44294F" p-id="11100"></path><path d="M630.184 625.064h-63.372v-63.376c0-13.236-10.764-24-24-24h-63.376c-13.236 0-24 10.764-24 24v63.376H392.06c-13.236 0-24 10.764-24 24v63.372c0 13.236 10.764 24 24 24h63.372v63.376c0 13.236 10.764 24 24 24h63.376c13.236 0 24-10.764 24-24v-63.376h63.372c13.236 0 24-10.764 24-24v-63.372a24.02 24.02 0 0 0-23.996-24z m0 87.368h-63.372c-13.236 0-24 10.764-24 24v63.376h-63.376v-63.376c0-13.236-10.764-24-24-24H392.06v-63.372h63.372c13.236 0 24-10.764 24-24v-63.376h63.376v63.376c0 13.236 10.764 24 24 24h63.372v63.372zM630.184 550.184h24v46.68h-24zM325.06 680.752h24v43.356h-24z" fill="#44294F" p-id="11101"></path></svg>